<svg id="Layer_1" data-name="Layer 1" xmlns="http://www.w3.org/2000/svg" viewBox="0 0 1213.97 890.16"><defs><style>.cls-1,.cls-2,.cls-3,.cls-4{isolation:isolate;}.cls-2,.cls-3,.cls-4{font-size:79.59px;font-family:Helvetica;}.cls-2,.cls-3,.cls-4,.cls-5{fill:#fff;}.cls-2{letter-spacing:-0.08em;}.cls-3{letter-spacing:0.05em;}.cls-4{letter-spacing:0.04em;}</style></defs><title>title</title><g id="_1_2_metamorfose_Imagem-2" data-name=" 1 2 metamorfose Imagem-2"><g id="Teatro_da_Cerca_de_São_Bernardo-2" data-name="Teatro da Cerca de São Bernardo-2" class="cls-1"><text class="cls-2" transform="translate(19.58 712.31) scale(0.89 1)">T</text><text class="cls-3" transform="translate(58.81 712.31) scale(0.89 1)">eatro da Cerca de São Bernardo</text></g><text class="cls-4" transform="translate(22.39 817.4) scale(0.89 1)">04/abril/2020</text><path class="cls-5" d="M21.71,524.11c.45-6.19.82-12.38,1.36-18.57,1.39-15.61,2.53-31.23,4.36-46.79,3.64-30.87,5.48-61.81,4.22-92.93a402.75,402.75,0,0,0-5.3-52,9.43,9.43,0,0,1,0-1.68H28.9c9.59,0,19.26.06,28.8,0,2.13,0,3,.5,3.56,2.71,4.33,18.93,8.68,37.87,11,57.19,2.27,18.89,2.1,37.88,1.35,56.85-1.13,30.39-2.57,60.78-3.53,91.18-.3,10,.47,19.94.75,29.91l.67.08a19.39,19.39,0,0,0,.5-2.26c2.12-20.51,6.8-40.57,10.61-60.79,3.87-20.4,7.93-40.8,11.58-61.32,4.75-26.66,7.83-53.51,7.56-80.64-.1-10-.92-19.93-1.48-29.91-.17-3-.27-3,2.63-3h25.35c1.93,0,2.93.39,3.2,2.5,1.6,12.34,3.86,24.72,4.88,37.19,2.27,26.55,1.36,53.13-.88,79.64-1.58,18.59-3.83,37.13-5.67,55.7-1.64,17-3.69,34.07-4.53,51.16-.75,16.58,1.41,33.12,3,49.64.94,9.56,1.66,19.13,2.55,28.69.14,1.62-.55,2-2,2q-9-.07-18,0c-1.46,0-2-.56-2.21-2a450.72,450.72,0,0,1-4.17-49.1,629.73,629.73,0,0,1,3.18-80.31c1.48-15,3.15-29.94,4.87-44.89,1-8.69,2.65-17.32,3.25-26.06.66-9.73.46-19.51.62-29.25a2,2,0,0,0-.61-1.45c-.28,2.55-.73,5.1-.82,7.67-.51,14.26-3.19,28.22-5.81,42.17-4.74,25.19-10,50.28-14.8,75.48-5.3,28.22-8.58,56.66-7.13,85.45.34,6.58,1.14,13.16,1.93,19.71.24,2-.16,2.57-2.18,2.53q-9.55-.15-19.13,0a2.26,2.26,0,0,1-2.65-1.8,1.9,1.9,0,0,1,0-.25,285.52,285.52,0,0,1-7.93-43.22c-3-27.58-5.12-55.24-4-83,.75-19.19,2-38.35,2.92-57.53.88-18.2,1-36.4-.74-54.57-.39-3.94-.88-7.88-1.31-11.81l-.55.06v5.2c.16,11.33.69,22.74.36,34.1-.26,8.79-1.48,17.59-2.5,26.35-1.6,13.65-3.72,27.25-5,40.93-1.9,20.1-3.64,40.24-4.71,60.4a399,399,0,0,0,1.6,62.6c.72,6.8,1.71,13.6,2.59,20.34.06.6.11,1.19.18,2-.81.07-1.48.18-2.13.18-5.23,0-10.46-.06-15.68,0-1.67,0-2.26-.53-2.47-2.18Q24,599,22.19,581.58c-.17-1.66-.37-3.32-.55-5Z"/><path class="cls-5" d="M626,303.28c3.47,1.78,7.06,3.33,10.36,5.37,10.27,6.34,17.18,15.59,22.2,26.4a126.4,126.4,0,0,1,9.74,33.73c3.11,19.58,5.29,39.28,5.36,59.13a369,369,0,0,1-4,56.54c-3.92,26.06-8.39,52-12.4,78a123.73,123.73,0,0,1-5.44,22.29c-2.12,6.11-2.51,12.78-5.59,18.62-2.27,4.2-4.27,8.52-6.88,12.47A27.46,27.46,0,0,1,624,627a19,19,0,0,0-2.07.9h-10.2c-1.49-.56-3-1.07-4.48-1.67a34.57,34.57,0,0,1-16.14-12.85,173.9,173.9,0,0,1-27.66-73.19c-2.89-20.27-2.73-40.56-.93-60.89,2.15-24.27,6.49-48.2,10.86-72.13,2.76-15.18,4.9-30.48,7.93-45.57A218.68,218.68,0,0,1,593.73,320a17.12,17.12,0,0,1,2.93-4.08c2-2.39,3.88-5.07,6.31-7s5.31-2.86,8-4.15c1.23-.59,2.56-.95,3.85-1.42Zm25.61,122A182.62,182.62,0,0,0,649,393.57a67.56,67.56,0,0,0-12.33-29.19,20.55,20.55,0,0,0-9.84-6.91,7.6,7.6,0,0,0-7.24.88,32.51,32.51,0,0,0-11,13c-4.41,9.07-6.49,18.85-8.62,28.59-5,22.82-9.18,45.78-12,69-1.75,14.73-3.52,29.55-2.14,44.54,1.51,16.22,3.51,32.22,11,47,1.5,3,2.87,6,5.8,7.84,2.47,1.55,5,3,7.55,4.42s5,1.5,7.07-.4c2.6-2.33,5.67-4.53,7.23-7.55,4.53-8.23,9.29-16.45,10.55-26.06.13-.92.27-1.83.45-2.73,3.86-20,7.87-40.07,11.55-60.15A273.53,273.53,0,0,0,651.59,425.24Z"/><path class="cls-5" d="M932.57,627.79c-2.27-.77-4.54-1.45-6.72-2.26a34.48,34.48,0,0,1-15.43-11.72c-9.37-12.65-16.78-26.3-20.25-41.75-1.81-8.07-2.88-16.32-4-24.52-2.46-17.37-4.12-34.82-3.23-52.35.65-12.95,1.9-25.88,3.33-38.77,1.71-15.33,3.53-30.66,6-45.88,2.13-13.25,5.27-26.33,7.83-39.51,1.13-5.66,1.68-11.4,2.82-17,2.27-11,4.94-22,10-32.2a43.35,43.35,0,0,1,3.25-5.29c4.22-6.2,9.6-10.94,16.88-13.23h12.47c4.34,1.86,9,3.25,13,5.67,7.39,4.53,12.26,11.51,16.27,19,8.36,15.69,12.6,32.76,16.19,50,4.18,20.07,4.17,40.46,2.73,60.8C992,462,990,485.2,986.05,508.16c-1.59,9.33-2,18.88-5.53,27.92-1.4,3.6-.93,7.93-1.71,11.8-2.37,11.72-4.89,23.42-7.42,35.13-1.74,8-3.26,16.09-6.73,23.62-3.8,8.22-8.82,15.3-17.37,19.19-1.52.69-3.07,1.33-4.6,2ZM905.65,502.35a113.15,113.15,0,0,0,3.4,39.67c1.93,7.57,5.6,14.73,8.69,22a10,10,0,0,0,3.47,3.91c2.78,1.89,5.78,3.47,8.71,5.12a4.9,4.9,0,0,0,5.67-.25c2.82-2.27,5.86-4.32,8.09-7,4.89-6,7.47-13.25,9.17-20.66,2.95-12.79,5.42-25.68,8.16-38.53,4.53-21.18,8.74-42.4,10.2-64.08,1.47-22.76-.47-45.06-8.14-66.74-2.62-7.4-6.19-13.43-13.71-16.88-5-2.27-6.19-2.59-10.48,1-9.73,8.13-14.56,19-17.38,31-2.07,8.8-3.62,17.73-5.41,26.6-1.53,7.6-3.4,15.14-4.53,22.79C908.4,460.81,905.72,481.45,905.65,502.35Z"/><path class="cls-5" d="M1052.42,303.28c10.31,3.06,17.38,10.35,23.8,18.45,5.19,6.57,8.39,14.24,11.13,22.08,5.48,15.69,7.26,32,7.79,48.46.15,4.53.24,9.07.22,13.6,0,.68-.76,1.94-1.19,1.95-5.74.15-11.51,1.19-17.18-.47-3.52-1-3.49-1-3.22-4.53.73-9.58.38-19-2.81-28.21-3-8.49-9-14-17.16-17.16a10.09,10.09,0,0,0-10.4,1.77c-5,3.95-7.61,9.37-9.32,15.28-2.53,8.74-1.89,17.65-1.22,26.54.25,3.29.56,6.59,1.13,9.84a10.89,10.89,0,0,0,1.87,4.53c5.8,7.72,13.16,13.93,20.32,20.32,2.06,1.84,4.08,3.73,6.16,5.54,12.73,11.11,19.77,25.39,23.44,41.59,3.24,14.3,3.4,28.77,2.54,43.31-.57,9.35-.75,18.76-1.93,28-2,15.34-2.58,30.95-8.19,45.65a108,108,0,0,1-9.07,17.22c-4.09,6.8-9.49,9.84-17.08,9.95a10.91,10.91,0,0,0-2.79.82h-2.85c-.71-.26-1.4-.59-2.13-.78-2.89-.75-6-1-8.63-2.27-10.48-4.92-18.3-12.78-24.11-22.67-5.67-9.57-8.89-20-11-30.83A245.46,245.46,0,0,1,996.08,526c-.08-6.94,1.76-8.05,8.5-6.44a75.53,75.53,0,0,0,11.07,1.79c1.66.15,2.27.37,2.36,2.09.36,7.44.68,14.89,1.33,22.3.82,9.36,3.83,17.79,11.05,24.34,8.27,7.52,22,5.4,28.23-4.29a41,41,0,0,0,6.67-23.61c-.26-7.78-1.78-15.52-2.35-23.31-.4-5.77-3.32-10-7.27-13.6-6.8-6.24-13.67-12.34-20.55-18.47-6.39-5.67-12.29-11.79-15.86-19.77-9-20-11.63-41.16-10.33-62.79.91-15,2.76-30,4.48-44.91.85-7.36,2.1-14.73,3.67-22a81.89,81.89,0,0,1,4.72-15.13c3.71-8.59,9.71-15.22,18.62-18.81Z"/><path class="cls-5" d="M1194.39,370.12,1161.75,368l-21.38-1.36h-1.68v2.82c-.5,18.5-1,37-1.52,55.53-.13,4.32-.25,4.17,4,4.75,9.2,1.27,18.38,2.71,27.58,4q9.08,1.29,18.26,2.48c1.53.19,2.07.61,1.84,2.26-1.31,9.13-2.45,18.26-3.67,27.39-1,7-2,14-2.89,21-.23,1.71-1,2.09-2.61,1.86-14.61-2-29.22-3.89-43.84-5.82-.75-.11-1.51-.24-2.26-.4-4.15-.88-4-.87-4.72,3.18-3.78,21.86-3.19,43.92-2.94,66,0,2.91.11,5.84,0,8.75,0,1.43.31,2,1.88,2.08,15.71,1,31.41,2.16,47.12,3.2,3.4.23,6.9.3,10.36.34,1.44,0,2.07.43,2.06,2a253.87,253.87,0,0,0,5.13,49.41,5.13,5.13,0,0,1,0,1c-.79.07-1.58.2-2.38.2H1112c-2,0-2.7-.78-2.93-2.56-1.59-12.8-3.7-25.55-4.74-38.39-2-23.69-1.53-47.45,0-71.14.83-12.78,2.6-25.51,4.19-38.24,2.19-17.44,5.11-34.8,6.8-52.3a317.28,317.28,0,0,0-.07-56.16c-1-11.63-2.12-23.24-3.4-34.85-.44-4.17-1.37-8.28-2.13-12.7.91,0,1.71-.14,2.52-.14h74.2c2.12,0,3.07.67,3.4,2.7,1.31,8.49,2.69,17,4,25.44.14.9.34,1.79.51,2.69Z"/><path class="cls-5" d="M534.19,374.42c-.44,5.88-.89,11.75-1.29,17.65-1.46,21.53-4.37,42.74-10.13,63.57-3.2,11.61-6.46,23.23-8.77,35s-3.85,24.12-5.13,36.26c-3.12,29.55-3,59.22-3,88.86,0,2.2-.58,2.92-2.82,2.86-5.38-.16-10.77-.18-16.14,0-2.27.06-3.28-.63-3.67-2.9-2.66-15.2-5.89-30.31-8-45.56a377.05,377.05,0,0,1-3.91-69.13c.84-19.42,1.86-38.82,2.81-58.24,1-19.88,1.35-39.76-.17-59.64a133.63,133.63,0,0,0-2-15.3c-.06,1-.18,2.05-.16,3.09.56,24.93-1.13,49.74-3.72,74.51-2.66,25-5.72,50-8.11,75.13a342.37,342.37,0,0,0-.59,52.23,386.73,386.73,0,0,0,4.74,43.49,16.94,16.94,0,0,1,.12,2,15.75,15.75,0,0,1-1.81.25H446.57c-1.59,0-2.26-.45-2.57-2.12-5.61-29.4-6.65-59-4.66-88.81,1.72-25.67,3.71-51.33,5.77-77s4-51.46,3.95-77.3a398.33,398.33,0,0,0-3.56-54.23,38.83,38.83,0,0,0-.73-4.53c-.51-2,.08-2.56,2.11-2.53,6.3.12,12.6,0,18.9,0,3.53,0,7.07.13,10.6,0,1.95-.09,2.7.58,3.06,2.44,2,10.79,4.27,21.53,6.24,32.33,2.76,15.12,5.35,30.29,5.79,45.67.46,15.87.64,31.8.15,47.68-.87,28.7-3.85,57.33-3.4,86.12.13,7,.57,14,.87,20.95a2.38,2.38,0,0,0,.72,1.62c.13-.83.3-1.66.39-2.48a453.23,453.23,0,0,1,8.39-51.13c4.53-20.92,9.8-41.7,13.84-62.72a361.73,361.73,0,0,0,4.76-39.79c2-25.84,1.13-51.75,1-77.64,0-3,0-3,3-3,8.38,0,16.75.09,25.11-.07,2.27,0,3,.81,3.4,2.89a351.25,351.25,0,0,1,6.08,72.65c-.29,22.45-2.09,44.81-4.22,67.15-2.4,25.15-5,50.29-6.91,75.48-1.55,20.4-.42,40.8,1.65,61.2.83,8.09,1.72,16.18,2.54,24.28a23.78,23.78,0,0,1,0,2.67c-.75,0-1.4.16-2.07.16-5.76,0-11.53-.07-17.28,0-1.77,0-2.54-.59-2.77-2.27-1.61-11.4-3.73-22.76-4.71-34.2a423.69,423.69,0,0,1,.84-75.72c1.56-16.82,3.66-33.59,5.66-50.38,3-25,5.77-50.05,6.16-75.28v-6.38Z"/><path class="cls-5" d="M238.93,370c-19.17-1.72-38.1-3.57-57.35-3.59.36,3.49.78,6.66,1,9.86,1,13.31-.35,26.54-1.7,39.76-.39,3.75-.71,7.51-1.14,11.23-.15,1.4.09,2.12,1.67,2.27q15,1.83,29.93,3.81c6.08.8,12.15,1.75,18.24,2.56,1.79.24,2.54,1,2.27,2.87q-1.6,13.35-3.13,26.75c-.79,7-1.56,14-2.21,21.06-.14,1.64-.43,2.33-2.26,2.08-15.22-2-30.47-3.91-45.68-5.85l-1.38-.21c-5-.87-4.9-.86-5.27,4.08-.95,13.1-2.26,26.18-2.9,39.29-.53,11.42-.26,22.87-.37,34.31,0,1.37.32,2,1.9,2.12,15.56,1,31.11,2.13,46.67,3.16,3.59.25,7.21.31,10.82.4,1.14,0,1.86.13,2,1.54,1.52,13,3.15,25.9,4.65,38.86.38,3.4.41,6.8.69,10.11.15,1.7-.6,2.06-2.14,2.06h-77c-1.83,0-2.41-.69-2.61-2.26-1.68-12.79-3.71-25.54-5-38.36a400.69,400.69,0,0,1-.56-71.57c.91-11.56,2.58-23.05,3.89-34.57,1.78-15.64,3.65-31.27,5.29-46.93a406.41,406.41,0,0,0,2.13-60.52c-.39-9.06-1.73-18-2.68-27-.81-7.71-1.62-15.42-2.56-23.13-.29-2.33,1.13-2,2.5-2H227.9c5.77,0,6,0,6.61,5.67,1.39,14,2.53,28,3.76,41.93.23,2.69.43,5.36.64,8.05C239,368.45,238.93,369.11,238.93,370Z"/><path class="cls-5" d="M430.1,618.34a19.13,19.13,0,0,1-2,.23H406.67a2,2,0,0,1-2.33-1.67.88.88,0,0,1,0-.17c-3-12-6.4-23.88-9.07-35.92a196.18,196.18,0,0,1-3-21.16c-.22-1.86-.75-2.62-2.54-2.7-5.29-.21-10.59-.33-15.86-.78-6.8-.59-13.6-1.47-20.32-2.27a5,5,0,0,0-.86.13c-.27,3-.57,6.06-.8,9.07-1.28,17.63-2.56,35.25-1.13,52.93.16,2-.43,2.51-2.36,2.48q-9.45-.15-18.89,0c-2,0-2.46-.72-2.53-2.54a423.9,423.9,0,0,1,3.4-68.5c2.89-22.49,7.11-44.73,12.05-66.86,4.61-20.67,9.29-41.34,14.37-61.9,6.9-27.91,9.82-56.23,10-84.9,0-6.45.13-12.91,0-19.36,0-1.93.59-2.49,2.5-2.47q11.33.15,22.58,0c1.81,0,2.4.68,2.7,2.27,4.34,22.92,8.84,45.82,13,68.78a203.52,203.52,0,0,1,3.72,40.31c-.13,6.59.9,13.19.73,19.78-.2,7.58-1.36,15.13-1.7,22.66-.45,9.9-.82,19.81-.68,29.71a354.79,354.79,0,0,0,7.42,67.68c3.67,17.42,8.14,34.66,12.27,52C429.56,616.27,429.81,617.21,430.1,618.34ZM386.58,386.73c-5.74,38.86-17.93,76.16-26.54,114l26.64,3.74q2.44-59-.1-117.72Z"/><path class="cls-5" d="M249.65,364a262.61,262.61,0,0,0-5.44-51.86H330c2.11,0,2.87.51,3.11,2.73,1.4,13.6,3.06,27.2,4.53,40.8.43,4,.39,8.12.68,12.19.14,1.89-.62,2.48-2.4,2.27-4.81-.59-9.6-1.27-14.42-1.68-3.88-.33-7.81-.29-11.7-.45-1.66-.06-2.19.59-2.27,2.26-.18,12.47,0,24.94-.92,37.3-1.13,15.15-2.94,30.27-4.94,45.33-3.77,28.55-8.27,57-9.19,85.85a259.79,259.79,0,0,0,2.36,41.81c1.55,11.78,2.42,23.66,3.65,35.49.21,2-.41,2.68-2.5,2.62-5.66-.15-11.33-.13-17,0-1.78,0-2.45-.56-2.63-2.27-1.13-10.07-2.48-20.11-3.33-30.21-2.86-33.79-1.77-67.55,1.56-101.23,1.56-15.87,3.26-31.66,6-47.29a259.41,259.41,0,0,0,4.26-51.81c-.13-5.84-.58-11.66-.86-17.5,0-1.06-.15-1.87-1.59-2-5.81-.47-11.61-1.19-17.42-1.62C260.09,364.32,255.11,364.26,249.65,364Z"/><path class="cls-5" d="M689.73,312.55c.32-.12.55-.29.74-.26,11.47,1.54,22.85-.51,34.26-1,9.12-.36,18.13-.09,26.58,4a27.06,27.06,0,0,1,11.52,9.9,122.68,122.68,0,0,1,17.6,47.59c4.2,27.27,1.13,53.9-7.26,80-1,3.22-3.15,6.11-4.87,9.07-2.46,4.23-5,8.43-7.52,12.64a6.59,6.59,0,0,0,0,7.43c4.78,7,5.33,14.94,5.49,22.94.34,18,.46,35.94.66,53.91.15,13.6.85,27.2,3.47,40.58.57,2.92,2.26,5.67,3.55,8.38s2.78,5.11,3.78,7.82c.92,2.48.39,2.95-2.27,2.95H753.11a2.54,2.54,0,0,1-3-2l0-.22A224.51,224.51,0,0,1,744,574.62c-.83-16.57-1.25-33.16-1.86-49.74-.14-3.68-.28-7.36-.51-11-.52-8.28-5.88-14.49-14.83-16.16-5.77-1.07-11.73-1.13-17.63-1.55-.56,0-1.62,1.05-1.73,1.75-.74,4.38-1.38,8.8-1.86,13.22-2.37,22.1-1.58,44.2.27,66.27q1.62,19.18,3.4,38.33c.21,2.14-.19,3-2.58,2.91-5.07-.18-10.2-.1-15.21,0-1.64,0-2.2-.54-2.48-2.16a447.48,447.48,0,0,1-6.8-86.93A473.9,473.9,0,0,1,686.47,479c2.16-17,4.08-34.16,5.88-51.27,2-19.33,3.3-38.75,2.51-58.19-.48-11.8-2-23.55-3.17-35.32-.66-6.88-1.47-13.75-2.18-20.62A5,5,0,0,1,689.73,312.55Zm27.2,52.52c3.35,26.91,0,53.45-3.57,79.52,4.17.43,7.94.64,11.73,1.28,3.55.61,7,1.73,10.5,2.59,8.78,2.18,14.17-.37,18-8.5a68.34,68.34,0,0,0,6.59-30.12c-.13-8.11-1.13-16.2-2-24.28a28.88,28.88,0,0,0-2.27-8.31,39.94,39.94,0,0,0-4.53-7.17,5.44,5.44,0,0,0-2.86-2,124.77,124.77,0,0,0-15.34-2.86c-5.32-.49-10.62-.12-16.24-.12Z"/><path class="cls-5" d="M797.75,312.2h74.93c2.17,0,2.85.64,3.12,2.77,1.36,10.51,3.17,21,4.31,31.49.76,7,.64,14.09.93,21.14.08,1.94-.57,2.52-2.73,2.35-16.23-1.24-32.48-2.27-48.73-3.4-.83-.06-1.67,0-2.87,0v2.84c-.53,20.89-1,41.76-1.67,62.65-.08,2.42.82,3.13,2.83,3.71,9.3,2.7,18.92,3,28.46,4,4.43.46,8.84,1.14,13.25,1.69,1.63.2,2.33.88,2.07,2.75-1.93,14.23-3.76,28.46-5.66,42.69-.17,1.3-.54,2.56-.73,3.85-.67,4.23-.44,4-4.66,3.53-9.44-1.13-18.83-2.71-28.26-4-4.18-.56-8.4-.79-12.6-1.23-1.52-.16-2.15.36-2.39,1.95a340.08,340.08,0,0,0-3.4,62.48c.72,21.13,2.79,42.15,5.46,63.1.19,1.5-.09,2.12-1.7,2.11H799.5c-1.52,0-2-.7-2.2-2-1.52-11.41-3.51-22.78-4.53-34.23-2.39-27.2-2-54.51,0-81.73,1.06-14.62,2.66-29.25,5-43.7,5.25-32.14,7.57-64.37,4.92-96.86-1.22-14.83-3-29.62-4.54-44.43Z"/><path class="cls-5" d="M935.89,168.67a8.58,8.58,0,0,0,1.8.88c8,1.93,14.32,6.43,19.56,12.61,5.66,6.63,9.46,14.25,12.66,22.24,4.44,11.12,7.27,22.67,10.08,34.29,3.51,14.52,4.63,29.27,5,44.13,0,1.28-.36,1.57-1.52,1.57H963.41c-1.37,0-1.6-.59-1.72-1.76-.51-4.7-1-9.43-1.72-14.11a126.62,126.62,0,0,0-6.65-25.7,71.48,71.48,0,0,0-4-9.07,12.42,12.42,0,0,0-3.74-3.93c-2.42-1.72-5.09-3.13-7.67-4.62a5.37,5.37,0,0,0-6.58.61A48.89,48.89,0,0,0,917,244.86a97.49,97.49,0,0,0-6.07,20.4c-1.13,5.83-2.2,11.71-3.19,17.6-.2,1.22-.71,1.46-1.79,1.46H884.05c-1.69,0-1.7-.06-1.42-1.66,2-10.91,3.87-21.83,5.89-32.74.59-3.21,1.59-6.38,2.17-9.61.86-4.73,1.49-9.5,2.27-14.26a196.53,196.53,0,0,1,6.62-27.39,55,55,0,0,1,8-16.89,64.15,64.15,0,0,1,6.37-7.21,20.35,20.35,0,0,1,7.61-4.63,14.93,14.93,0,0,0,2.26-1.31Z"/><path class="cls-5" d="M617.49,168.67a10.82,10.82,0,0,0,1.82,1.24c12.19,4.93,21,13.59,27.4,24.8,5.48,9.61,8.77,20,11.16,30.72a265.38,265.38,0,0,1,4.8,31.74q1,10.38,2,20.78c.15,1.68.13,3.4.26,5,.08,1-.21,1.4-1.25,1.38H644.33c-1.25,0-1.29-.65-1.36-1.57q-.68-7.67-1.42-15.31a75.83,75.83,0,0,0-9.14-29.36c-1.13-2.08-2.51-4-3.83-6-2.34-3.52-5.82-5.6-9.62-7.16a7.62,7.62,0,0,0-7.63.89A32.38,32.38,0,0,0,601.05,238a73.71,73.71,0,0,0-6.15,17.52c-2.06,9.07-4,18.07-5.87,27.12-.3,1.49-.89,1.79-2.26,1.78-7-.06-14,0-21,0-1.91,0-2-.07-1.64-1.94,1.87-10.69,3.77-21.38,5.61-32.09,1-5.8,1.7-11.66,2.85-17.43,1.31-6.66,2.86-13.29,4.53-19.89a175,175,0,0,1,8.18-25.77,23.09,23.09,0,0,1,3.25-5.19c2-2.59,4.25-5,6.41-7.51a12.24,12.24,0,0,1,5.85-3.46c1.53-.5,3.1-.89,4.62-1.43a6.72,6.72,0,0,0,1.45-1Z"/><path class="cls-5" d="M1042.33,168.67a5.38,5.38,0,0,0,1.32.84c6.36,1.72,11.24,5.67,15.86,10.2,9.42,9.3,15,20.76,18.86,33.17,4.53,14.33,6.3,29.1,6.9,44.05.24,5.88.32,11.77.43,17.66,0,2.12,0,2.2-2.16,2.27-3.83.09-7.68.3-11.51.17a23.24,23.24,0,0,1-5.83-1.13c-2.27-.67-2.35-1-2.13-3.32a87,87,0,0,0-.42-20.4c-1-6.51-2.81-12.67-6.8-18.13-3.33-4.54-8-7.32-13.08-9.39-3.23-1.29-6.36-.54-9.19,1.37-4.26,2.87-6.55,7.2-8.5,11.73a46.68,46.68,0,0,0-3.32,20.67c.33,7.56,1.13,15.1,1.71,22.67a4.27,4.27,0,0,0,.43,1.52c.85,1.71.86,1.72-.94,1.72h-22.79c-1.95,0-2,0-2-2.06a296.66,296.66,0,0,1,2-32.5q2.33-20.19,5-40.3a57.34,57.34,0,0,1,2.07-7.74c.95-3.4,1.86-6.8,2.89-10.2a42.7,42.7,0,0,1,8.13-14.2,28.28,28.28,0,0,1,9.68-7.25,15.19,15.19,0,0,0,1.95-1.42Z"/><path class="cls-5" d="M1184.25,238c-2.27-.28-4.54-.69-6.8-.83-11-.65-22.08-1.21-33.12-1.84-4.36-.25-8.72-.63-13.08-1-2.27-.17-2.27-.19-2.34,2.09-.16,12-.28,24-.46,36,0,3.4-.26,6.88-.33,10.32,0,1.13-.42,1.59-1.62,1.58h-19.12c-1.45,0-1.56-.61-1.52-1.81.27-7.18.57-14.37.67-21.53a391.89,391.89,0,0,0-1.52-40.11c-.86-9.6-1.73-19.2-2.78-28.79-.44-4-1.3-8-2-12-.33-1.82-.29-2,1.62-2h74.4c3,0,2.93,0,3.67,2.89a151.16,151.16,0,0,1,3.88,24.67c.08,1,.33,1.94.5,2.9Z"/><path class="cls-5" d="M686.87,254.5c-.18-7.57-.23-17.2-.72-26.82-.31-6.34-1.27-12.64-1.91-19q-1.37-13.26-2.73-26.48a4,4,0,0,0-.07-.92c-.33-3.19-.33-3.21,2.79-2.83,6.8.8,13.6.15,20.45-.38,7.81-.61,15.62-1.43,23.46-.68A38.8,38.8,0,0,1,748,184.65a21.14,21.14,0,0,1,5.28,5.67,124.91,124.91,0,0,1,16.28,39.21c4,17.31,4.7,34.81,3.2,52.45,0,.3-.09.61-.11.91.07,1.26-.6,1.5-1.72,1.48H752.75c-1,0-1.5-.13-1.41-1.38.68-9.9-.55-19.67-1.73-29.46-.77-6.48-4.21-11.34-7.53-16.45a4.55,4.55,0,0,0-2.32-1.32,79.58,79.58,0,0,0-24.77-3.4h-5.06c-1.23-.06-1.55.38-1.45,1.62.44,5.34.87,10.67,1.13,16a271.91,271.91,0,0,1-1.05,32.79c-.1,1.28-.51,1.67-1.79,1.66-6.6-.05-13.21,0-19.81,0-1.67,0-1.69,0-1.6-1.88C685.82,273.85,686.29,265.22,686.87,254.5Z"/><path class="cls-5" d="M281.57,178.16h42.14c1.31-.1,1.91.44,2.06,1.82.69,6.69,1.5,13.37,2.27,20.06.71,6.38,1.52,12.76,2.07,19.16.47,5.48.65,11,.9,16.49.09,2-.22,2.33-2.27,2.12-5-.54-10-1.35-15.08-1.79-3.73-.33-7.51-.33-11.26-.32-1.9,0-1.93.23-1.95,2.27,0,7.57.17,15.15-.06,22.66s-.91,15-1.34,22.44c-.06,1-.5,1.28-1.43,1.27H278.29c-1.69,0-1.33-.95-1.31-1.95.3-9.18.74-18.35.78-27.51,0-6.19-.5-12.38-.83-18.57-.12-2.26-.18-2.15-2.4-2.37-6.11-.57-12.21-1.35-18.32-1.82-3.81-.28-7.65-.2-11.48-.15-2,0-2,.13-2.12-1.89-.46-8.7-.68-17.43-1.53-26.06-.77-7.83-2.26-15.59-3.4-23.37-.06-.45-.32-.94-.22-1.34a1.7,1.7,0,0,1,.86-1.13,5.86,5.86,0,0,1,1.82-.07Z"/><path class="cls-5" d="M187.14,178.16H224c2.76,0,2.86,0,3.2,2.68.88,7,1.86,13.95,2.44,20.95.92,11.21,1.58,22.43,2.35,33.64,0,.24.07.46.07.69,0,1.52-.12,1.7-1.72,1.54-4.35-.41-8.69-.87-13.06-1.26-12.84-1.13-25.7-2.06-38.6-2.26h-1.38c-2.54,0-2.55,0-2.26,2.47a159.09,159.09,0,0,1,.32,34.56c-.34,3.81-.73,7.62-1,11.43-.09,1.34-.5,1.82-1.92,1.8-6.37-.07-12.73,0-19.1,0-1.85,0-1.85,0-1.71-2,1.05-15.27,1.71-30.54,1.26-45.85-.14-5.12-.58-10.2-1.13-15.31-1.22-12.56-2.55-25.11-3.85-37.66-.14-1.29-.33-2.57-.5-3.87-.14-1.06.35-1.57,1.43-1.55h38.22Z"/><path class="cls-5" d="M827.7,178.16h36.16c2.51,0,2.52.09,2.84,2.47,1.13,8.71,2.42,17.41,3.59,26.13,1.27,9.48,2.43,19,1.66,28.58,0,.3-.06.61-.08.91,0,1.13-.48,1.59-1.75,1.46-5.66-.63-11.33-1.29-17-1.68-11.11-.73-22.23-1.3-33.33-1.89-1.94-.1-2,0-2,2.13,0,9.26,0,18.52-.1,27.77,0,6.12-.27,12.24-.44,18.35,0,1.94-.11,2-2.12,2H796.8c-2.88,0-2.35-.1-2.33-2.33.1-12.08.38-24.17.25-36.27a428.33,428.33,0,0,0-2.93-44.85c-.8-6.8-1.71-13.6-2.56-20.49-.28-2.27-.27-2.27,2.1-2.27Z"/><path class="cls-5" d="M378.93,255c-.47,3-.93,6-1.45,9-1.13,6.25-2.27,12.46-3.29,18.74-.23,1.41-.89,1.67-2.17,1.67-6.68-.06-13.35,0-20,0-1.89,0-1.87,0-1.47-2,1.33-6.43,2.92-12.84,3.88-19.33,1.45-9.82,2.73-19.68,3.57-29.58,1.48-17.39,1.53-34.83,1.47-52.27v-1.61a1.25,1.25,0,0,1,1.05-1.42,1,1,0,0,1,.35,0H384.1c2.48,0,2.59.09,3,2.4q4,21.18,7.94,42.38c1.72,9.31,3.56,18.61,5,28s2.38,18.8,3.5,28.2c.15,1.29,0,2.61.15,3.9.07,1-.33,1.43-1.31,1.33H382.1c-1.81,0-1.82,0-1.87-1.93q-.32-12.37-.64-24.77c0-.87-.15-1.76-.23-2.64Z"/><path class="cls-5" d="M464.21,235c0,5.67.12,11.34,0,17-.26,10-.65,20-1,30-.09,2.4.17,2.32-2.51,2.32H442.46c-2.92,0-2.36-.16-2.27-2.34.4-13.83,1-27.67,1.14-41.51a387.09,387.09,0,0,0-2.65-48.73c-.45-3.79-1.07-7.57-1.61-11.33-.29-2-.15-2.27,1.74-2.27h30.4c1.84,0,1.91,0,2.32,2.1,1.19,5.93,2.36,11.86,3.45,17.79,1.5,8,3,16.08,4.33,24.15q1.44,8.61,2.5,17.25a342.09,342.09,0,0,1,2.57,42.08c0,3.07.46,2.79-2.82,2.8H468.9c-1.33,0-1.63-.45-1.67-1.71-.25-10.2-.48-20.5-.94-30.74-.24-5.19-.93-10.36-1.44-15.52a8.47,8.47,0,0,0-.32-1.32Z"/><path class="cls-5" d="M47.15,233.58v5.26c.48,14.14,1,28.33.29,42.45-.21,3.68.09,3-3.18,3.07h-17c-2.18,0-2.16,0-2.12-2.26.22-12.32.66-24.63.56-37a414.86,414.86,0,0,0-4.15-55.34c-.44-3.11-1-6.19-1.48-9.29-.35-2.09-.21-2.34,1.81-2.34H52.29a2,2,0,0,1,2.32,1.62,1,1,0,0,1,0,.24c1.39,6.58,3,13.12,4.3,19.72,1.62,7.93,3.2,15.86,4.53,23.87a281.88,281.88,0,0,1,4,46.13v13.08c0,1.21-.3,1.6-1.52,1.59q-7-.1-14,0c-1.38,0-1.61-.53-1.63-1.76-.16-9.32-.24-18.66-.66-28-.27-6-1.05-12-1.64-18.05a27,27,0,0,0-.65-3.07Z"/><path class="cls-5" d="M526.25,243c-.44,6.55-.81,13.11-1.35,19.66s-1.21,13.25-1.87,19.87c-.18,1.82-.24,1.84-2.08,1.84H508.74c-1.13,0-1.38-.35-1.24-1.49a371.89,371.89,0,0,0,2.67-38.9c.21-20.39.13-40.79.16-61.26v-2.06c0-2.44,0-2.51,2.4-2.51H539c2,0,2.27.13,2.61,2.08,1.34,8.45,2.86,16.88,3.87,25.38a397.42,397.42,0,0,1,2.27,56.57c-.17,6.74-.5,13.46-.78,20.19-.08,2-.13,2-2.12,2h-18c-2,0-1.9,0-1.74-2.07,1-12.47,1.7-25,1.55-37.59a15.82,15.82,0,0,0-.07-1.82Z"/><path class="cls-5" d="M109.22,253.39c-.33,4.8-.53,9.59-1,14.37-.51,5.17-1.26,10.31-1.88,15.47-.1.86-.51,1.13-1.35,1.13H90.71c-1.13,0-1.13-.54-1-1.45.67-4.85,1.36-9.69,1.88-14.56,1-9.73,2.13-19.46,2.87-29.21a350.31,350.31,0,0,0,.58-40.6c-.23-5.57-.76-11.14-1.13-16.7,0-.47-.1-.92-.13-1.37-.16-2.27-.08-2.27,2.27-2.27h26.25c2.07,0,2.19,0,2.5,2.1,1.52,10.29,3.26,20.54,4.37,30.88,2.16,20,2.13,40.16,1.49,60.29-.13,3.82-.41,7.63-.51,11.45,0,1.28-.58,1.5-1.68,1.5H111.16c-1.45,0-1.5-.57-1.48-1.78.16-8.79.24-17.59.32-26.38,0-.95-.12-1.89-.19-2.85Z"/><path class="cls-5" d="M324,34.55c-3,15.61-6.1,31.2-9.07,46.83-1.49,7.93-2.33,16-4.13,23.93-2.42,10.56-4.87,21.19-10.86,30.52-4.27,6.64-9.37,12.46-17.33,14.63A28.47,28.47,0,0,1,267,150c-11.75-3.4-19.16-11.67-25-21.73-6.65-11.5-10.37-24.12-13.81-36.82a210.9,210.9,0,0,1-7.56-54.15c0-.9.07-1.82.1-2.73h23c.11,1,.24,2,.32,3a148.82,148.82,0,0,0,10.26,44.05c1.23,3,2.6,5.94,5.46,7.76,2.65,1.69,5.35,3.29,8.08,4.84a5.44,5.44,0,0,0,6.6-.59,49.38,49.38,0,0,0,15.41-21.34c4.78-12.12,6.5-24.93,8.71-37.68Z"/><path class="cls-5" d="M522.12,34.55c-.07,2.51-.14,5-.18,7.54-.29,14.9-1,29.81-.71,44.7.22,10.36,1.84,20.7,2.87,31q1.14,11,2.27,21.91c.11,1.06.1,1.91-1.31,1.73-11.33-1.48-22.66.59-34,1-6.8.26-13.68.28-20.32-1.72-8.06-2.44-14.45-6.8-18.83-14.35a135.17,135.17,0,0,1-17.46-54.14,166,166,0,0,1,.1-37.74h21.21c.26,7.93.36,15.87.83,23.8.5,8.42,2.27,16.5,8,23.17a6.74,6.74,0,0,0,2.63,2c10,3.32,20.33,3.66,30.73,3.49a5.13,5.13,0,0,0,1.13-.31c-2.1-17.41-1.57-34.8,0-52.12Z"/><path class="cls-5" d="M644.68,34.55c-2.42,13.85-5.1,27.65-7.2,41.56a270.6,270.6,0,0,1-14.54,56.47,21.37,21.37,0,0,1-3.27,5.18c-2,2.57-4.24,5-6.38,7.5a6.56,6.56,0,0,1-1.35,1.23,35.33,35.33,0,0,1-13.51,4.6c-8.66,1.14-15.37-3.32-21.76-8.08-10.5-7.79-16.81-18.65-21.35-30.59-5-13.25-7.54-27.09-9.14-41.07-1.32-11.47-2.27-23-3.29-34.46-.07-.76,0-1.53,0-2.27H565c.74,7.52,1.13,15.08,2.27,22.56A70.3,70.3,0,0,0,578.9,86.56a21.68,21.68,0,0,0,9.74,7.75,8.1,8.1,0,0,0,8.46-.86A33,33,0,0,0,609.57,76c3-9.61,5.28-19.45,7.68-29.23,1-4,1.46-8.08,2.18-12.12Z"/><path class="cls-5" d="M933.59,34.55a301.48,301.48,0,0,0-.17,48.36c.12,1.87.78,2.34,2.6,2.49,6.19.49,12.35,1.35,18.54,1.82a96,96,0,0,0,11.25.12c1.59-.07,2.27.12,2.27,1.84a259.8,259.8,0,0,0,3,38.4q.88,5.88,2.08,11.74c.35,1.71,0,2.33-1.86,2.33H886.53c-1.4,0-2-.42-2.2-1.91-1.34-12.71-2.87-25.37-4.14-38.09-.6-6-.73-12.06-1.14-18.13-.1-1.66.56-2.27,2.15-2,5.1.63,10.19,1.37,15.31,1.81,3.72.33,7.5.26,11.24.39,1.56,0,2.07-.62,2.09-2.2q.35-19.5.87-39c.07-2.66.54-5.31.82-7.93Z"/><path class="cls-5" d="M206.49,34.55c-.24,5.57-.19,11.17-.75,16.72-1.83,18-4,36-5.82,54.06-.86,8.38-3.4,16.36-6.14,24.16-3.4,9.58-9.37,17.65-19.44,21.07-3.54,1.2-8,.82-11.77,0-10.06-2.19-16.55-9.52-22.66-17.09-7-8.68-10.93-18.89-14-29.46-5.51-18.7-6.43-37.94-6.61-57.25,0-4.46,0-4.67,4.4-4.65a108,108,0,0,1,14.38.84c3.22.43,3.18.95,2.95,4.23-.75,9.91-.46,19.71,2.7,29.27a28.36,28.36,0,0,0,16.91,18,10.2,10.2,0,0,0,10.81-1.66c4.37-3.46,6.8-8.25,8.58-13.33,2.93-8.12,2.87-16.54,2.38-24.94-.33-5.56-.95-11.12-1.6-16.67a12,12,0,0,0-1.47-3.26Z"/><path class="cls-5" d="M99.12,34.55A401.66,401.66,0,0,0,99.42,93c1,11.89,2.12,23.8,3.33,35.63a84.47,84.47,0,0,0,1.83,10.62c.45,1.93.06,2.42-1.88,2.41-8.9-.08-17.81,0-26.72,0H27.85c-2.13,0-2.93-.72-3.4-2.69a166.68,166.68,0,0,1-4.53-39.11V81.74L75.54,85c.34-16.88.68-33.66,1-50.46Z"/><path class="cls-5" d="M1059.84,34.55c-1.63,18.47-2.43,37-1.2,55.53,1.06,16.33,3.24,32.58,5,48.85.24,2.16-.2,2.79-2.43,2.79q-37.34-.1-74.65,0c-2.09,0-2.87-.7-3.06-2.65-1-10.57-2.27-21.13-3.23-31.73-.7-7.77-1-15.58-1.62-23.36-.16-2,.37-2.41,2.38-2.26,17.15,1.24,34.3,2.38,51.46,3.53,1.2.08,2.4,0,3.71,0-.41-4.6-1.14-8.86-1.14-13.1.22-10.78.81-21.53,1.26-32.31.08-1.75.26-3.51.39-5.25Z"/><path class="cls-5" d="M412.45,34.55c-.08,14.45-.42,28.92-.17,43.37a471.89,471.89,0,0,0,5.39,61c.31,2.17-.14,2.77-2.38,2.77q-36.39-.13-72.79,0c-1.73,0-2.6-.33-2.85-2.27-1.39-11-3.19-22-4.34-33-.77-7.35-.69-14.8-1-22.2-.07-2,.54-2.67,2.84-2.49,16.38,1.29,32.76,2.36,49.14,3.56,2,.14,2.59-.47,2.61-2.52.09-16.06.31-32.13.49-48.18Z"/><path class="cls-5" d="M859.87,34.55a296.48,296.48,0,0,0-7.31,42.68c-2,20.4-2.27,40.8-2.19,61.19,0,3.21,0,3.21-3.31,3.21-7.22,0-14.42-.07-21.64,0-1.85,0-2.56-.61-2.88-2.37-4.33-23.68-8.87-47.33-13-71-1.94-11.13-3.77-22.33-3.59-33.7h23.5l.76,29.54h.41q2.63-14.73,5.28-29.52Z"/><path class="cls-5" d="M769.1,34.55c-.1,2.9-.13,5.8-.27,8.69-1.23,25.17-1.45,50.32.92,75.43.65,6.8,1.58,13.67,2.53,20.48.27,2-.25,2.53-2.27,2.52q-14.85-.12-29.7,0a2.45,2.45,0,0,1-2.83-2,3,3,0,0,1,0-.43c-2.34-12.78-5.11-25.49-7-38.34-2.17-14.59-3.73-29.27-5.21-43.94-.65-6.57-.46-13.15-.65-19.72,0-.91-.11-1.82-.16-2.73h17.5a336,336,0,0,0,2.59,48.91l1.6-48.9Z"/><path class="cls-5" d="M1192.09,141.52q-16.35,0-32.68.12c-1.36,0-1.84-.61-2.1-1.86-2.45-11.74-5.13-23.44-7.41-35.22a291.55,291.55,0,0,1-5.55-51.46c-.09-6.19-.13-12.37-.19-18.56h17.51c-1,12.25,1.14,46.69,3.14,50.9v-4.2c-.21-9.17-.6-18.32-.62-27.49,0-6.4.46-12.81.72-19.27H1187c-.08,3-.11,6-.23,8.94a492.42,492.42,0,0,0,3.33,83.13c.51,3.92,1.31,7.79,2,11.69Z"/><path class="cls-5" d="M701.36,34.55c-.66,7.61-1.44,15.21-1.94,22.82-1.58,24.06-1.27,48.16-1,72.24,0,3.13,0,6.28.09,9.4.09,2-.48,2.69-2.56,2.67-8.75-.11-17.49-.09-26.24,0-1.75,0-2.5-.6-2.73-2.27-1.36-9.3-3-18.56-4.08-27.9-2.89-25.6-2.55-51.28-1.14-77h22.11a351.81,351.81,0,0,0-1.65,40.8,18.13,18.13,0,0,0,.67-3.8c.65-9,1.25-18,1.92-27,.25-3.34.6-6.67.91-10Z"/><path class="cls-5" d="M1122,34.55c-.63,5.38-1.23,10.77-1.92,16.14a416.83,416.83,0,0,0-3.57,66.62c.24,7.27.84,14.51,1.43,21.75.18,2.08-.42,2.63-2.46,2.61-8.68-.1-17.37-.07-26.07,0-1.65,0-2.51-.39-2.74-2.18-1.68-13.2-3.89-26.35-5-39.58-1.91-21.75-1.44-43.57-.21-65.36h20.74a13.7,13.7,0,0,0-.32,2q-.15,13.73-.26,27.45a17,17,0,0,0,.32,2l3.49-31.47Z"/></g></svg>