<?xml version="1.0" encoding="utf-8"?>
<!-- Generator: Adobe Illustrator 24.0.1, SVG Export Plug-In . SVG Version: 6.00 Build 0)  -->
<svg version="1.1" id="Layer_1" xmlns="http://www.w3.org/2000/svg" xmlns:xlink="http://www.w3.org/1999/xlink" x="0px" y="0px"
	 viewBox="0 0 1214 759.5" style="enable-background:new 0 0 1214 759.5;" xml:space="preserve">
<style type="text/css">
	.st0{fill:#FFFFFF;}
	.st1{font-family:'Helvetica';}
	.st2{font-size:78.1732px;}
	.st3{letter-spacing:3.4;}
</style>
<title>title</title>
<path class="st0" d="M19.3,507.8c0.5-6.2,0.8-12.4,1.4-18.6c1.4-15.6,2.5-31.2,4.4-46.8c3.6-30.9,5.5-61.8,4.2-92.9
	c-0.6-17.4-2.4-34.8-5.3-52c0-0.6,0-1.1,0-1.7h2.6c9.6,0,19.3,0.1,28.8,0c2.1,0,3,0.5,3.6,2.7c4.3,18.9,8.7,37.9,11,57.2
	c2.3,18.9,2.1,37.9,1.3,56.9c-1.1,30.4-2.6,60.8-3.5,91.2c-0.3,10,0.5,19.9,0.8,29.9l0.7,0.1c0.2-0.7,0.4-1.5,0.5-2.3
	c2.1-20.5,6.8-40.6,10.6-60.8c3.9-20.4,7.9-40.8,11.6-61.3c4.8-26.7,7.8-53.5,7.6-80.6c-0.1-10-0.9-19.9-1.5-29.9
	c-0.2-3-0.3-3,2.6-3h25.3c1.9,0,2.9,0.4,3.2,2.5c1.6,12.3,3.9,24.7,4.9,37.2c2.3,26.5,1.4,53.1-0.9,79.6
	c-1.6,18.6-3.8,37.1-5.7,55.7c-1.6,17-3.7,34.1-4.5,51.2c-0.8,16.6,1.4,33.1,3,49.6c0.9,9.6,1.7,19.1,2.6,28.7c0.1,1.6-0.6,2-2,2
	c-6,0-12,0-18,0c-1.5,0-2-0.6-2.2-2c-2.3-16.3-3.7-32.7-4.2-49.1c-0.7-26.8,0.4-53.6,3.2-80.3c1.5-15,3.2-29.9,4.9-44.9
	c1-8.7,2.7-17.3,3.2-26.1c0.7-9.7,0.5-19.5,0.6-29.2c0-0.5-0.2-1.1-0.6-1.5c-0.3,2.5-0.7,5.1-0.8,7.7c-0.5,14.3-3.2,28.2-5.8,42.2
	c-4.7,25.2-10,50.3-14.8,75.5c-5.3,28.2-8.6,56.7-7.1,85.5c0.3,6.6,1.1,13.2,1.9,19.7c0.2,2-0.2,2.6-2.2,2.5
	c-6.4-0.1-12.7-0.1-19.1,0c-1.2,0.2-2.4-0.6-2.6-1.8c0,0,0,0,0,0c0-0.1,0-0.2,0-0.2c-3.7-14.2-6.4-28.6-7.9-43.2
	c-3-27.6-5.1-55.2-4-83c0.8-19.2,2-38.4,2.9-57.5c0.9-18.2,1-36.4-0.7-54.6c-0.4-3.9-0.9-7.9-1.3-11.8l-0.5,0.1v5.2
	c0.2,11.3,0.7,22.7,0.4,34.1c-0.3,8.8-1.5,17.6-2.5,26.4c-1.6,13.6-3.7,27.2-5,40.9c-1.9,20.1-3.6,40.2-4.7,60.4
	c-1.1,20.9-0.6,41.8,1.6,62.6c0.7,6.8,1.7,13.6,2.6,20.3c0.1,0.6,0.1,1.2,0.2,2c-0.8,0.1-1.5,0.2-2.1,0.2c-5.2,0-10.5-0.1-15.7,0
	c-1.7,0-2.3-0.5-2.5-2.2c-1.2-11.6-2.4-23.2-3.6-34.8c-0.2-1.7-0.4-3.3-0.5-5L19.3,507.8z"/>
<path class="st0" d="M623.6,287c3.5,1.8,7.1,3.3,10.4,5.4c10.3,6.3,17.2,15.6,22.2,26.4c4.8,10.7,8.1,22.1,9.7,33.7
	c3.1,19.6,5.3,39.3,5.4,59.1c0.1,18.9-1.2,37.8-4,56.5c-3.9,26.1-8.4,52-12.4,78c-1.1,7.6-2.9,15-5.4,22.3
	c-2.1,6.1-2.5,12.8-5.6,18.6c-2.3,4.2-4.3,8.5-6.9,12.5c-3.6,5.4-9.1,9.4-15.3,11.2c-0.7,0.3-1.4,0.6-2.1,0.9h-10.2
	c-1.5-0.6-3-1.1-4.5-1.7c-6.6-2.5-12.2-7-16.1-12.8c-14.7-22-24.1-47-27.7-73.2c-2.9-20.3-2.7-40.6-0.9-60.9
	c2.2-24.3,6.5-48.2,10.9-72.1c2.8-15.2,4.9-30.5,7.9-45.6c2.7-14.2,6.9-28.2,12.4-41.6c0.8-1.5,1.8-2.9,2.9-4.1c2-2.4,3.9-5.1,6.3-7
	s5.3-2.9,8-4.1c1.2-0.6,2.6-1,3.8-1.4L623.6,287z M649.2,409c0.1-10.6-0.8-21.2-2.6-31.7c-1.7-10.6-6-20.6-12.3-29.2
	c-2.5-3.2-5.9-5.6-9.8-6.9c-2.4-1-5.1-0.6-7.2,0.9c-4.8,3.3-8.6,7.8-11,13c-4.4,9.1-6.5,18.9-8.6,28.6c-5,22.8-9.2,45.8-12,69
	c-1.8,14.7-3.5,29.5-2.1,44.5c1.5,16.2,3.5,32.2,11,47c1.5,3,2.9,6,5.8,7.8c2.5,1.5,5,3,7.5,4.4s5,1.5,7.1-0.4
	c2.6-2.3,5.7-4.5,7.2-7.5c4.5-8.2,9.3-16.5,10.5-26.1c0.1-0.9,0.3-1.8,0.5-2.7c3.9-20,7.9-40.1,11.5-60.2
	C647.7,442.9,649.2,425.9,649.2,409L649.2,409z"/>
<path class="st0" d="M930.1,611.5c-2.3-0.8-4.5-1.5-6.7-2.3c-6.2-2.4-11.5-6.4-15.4-11.7c-9.4-12.7-16.8-26.3-20.2-41.8
	c-1.8-8.1-2.9-16.3-4-24.5c-2.5-17.4-4.1-34.8-3.2-52.4c0.7-13,1.9-25.9,3.3-38.8c1.7-15.3,3.5-30.7,6-45.9
	c2.1-13.2,5.3-26.3,7.8-39.5c1.1-5.7,1.7-11.4,2.8-17c2.3-11,4.9-22,10-32.2c1-1.8,2-3.6,3.2-5.3c4.2-6.2,9.6-10.9,16.9-13.2h12.5
	c4.3,1.9,9,3.2,13,5.7c7.4,4.5,12.3,11.5,16.3,19c8.4,15.7,12.6,32.8,16.2,50c4.2,20.1,4.2,40.5,2.7,60.8
	c-1.7,23.2-3.7,46.4-7.7,69.4c-1.6,9.3-2,18.9-5.5,27.9c-1.4,3.6-0.9,7.9-1.7,11.8c-2.4,11.7-4.9,23.4-7.4,35.1
	c-1.7,8-3.3,16.1-6.7,23.6c-3.8,8.2-8.8,15.3-17.4,19.2c-1.5,0.7-3.1,1.3-4.6,2L930.1,611.5z M903.2,486.1
	c-1.2,13.3-0.1,26.8,3.4,39.7c1.9,7.6,5.6,14.7,8.7,22c0.8,1.6,2,2.9,3.5,3.9c2.8,1.9,5.8,3.5,8.7,5.1c1.8,1.1,4,1,5.7-0.2
	c2.8-2.3,5.9-4.3,8.1-7c4.9-6,7.5-13.2,9.2-20.7c3-12.8,5.4-25.7,8.2-38.5c4.5-21.2,8.7-42.4,10.2-64.1c1.5-22.8-0.5-45.1-8.1-66.7
	c-2.6-7.4-6.2-13.4-13.7-16.9c-5-2.3-6.2-2.6-10.5,1c-9.7,8.1-14.6,19-17.4,31c-2.1,8.8-3.6,17.7-5.4,26.6
	c-1.5,7.6-3.4,15.1-4.5,22.8C906,444.5,903.3,465.2,903.2,486.1z"/>
<path class="st0" d="M1050,287c10.3,3.1,17.4,10.4,23.8,18.5c5.2,6.6,8.4,14.2,11.1,22.1c5.5,15.7,7.3,32,7.8,48.5
	c0.2,4.5,0.2,9.1,0.2,13.6c0,0.7-0.8,1.9-1.2,2c-5.7,0.1-11.5,1.2-17.2-0.5c-3.5-1-3.5-1-3.2-4.5c0.7-9.6,0.4-19-2.8-28.2
	c-3-8.5-9-14-17.2-17.2c-3.5-1.4-7.5-0.7-10.4,1.8c-5,4-7.6,9.4-9.3,15.3c-2.5,8.7-1.9,17.6-1.2,26.5c0.2,3.3,0.6,6.6,1.1,9.8
	c0.3,1.6,0.9,3.2,1.9,4.5c5.8,7.7,13.2,13.9,20.3,20.3c2.1,1.8,4.1,3.7,6.2,5.5c12.7,11.1,19.8,25.4,23.4,41.6
	c3.2,14.3,3.4,28.8,2.5,43.3c-0.6,9.4-0.8,18.8-1.9,28c-2,15.3-2.6,31-8.2,45.7c-2.5,6-5.5,11.8-9.1,17.2c-4.1,6.8-9.5,9.8-17.1,10
	c-1,0.1-1.9,0.4-2.8,0.8h-2.8c-0.7-0.3-1.4-0.6-2.1-0.8c-2.9-0.8-6-1-8.6-2.3c-10.5-4.9-18.3-12.8-24.1-22.7
	c-5.7-9.6-8.9-20-11-30.8c-2.9-14.9-4.4-30.1-4.5-45.3c-0.1-6.9,1.8-8,8.5-6.4c3.6,0.9,7.3,1.5,11.1,1.8c1.7,0.2,2.3,0.4,2.4,2.1
	c0.4,7.4,0.7,14.9,1.3,22.3c0.8,9.4,3.8,17.8,11,24.3c8.3,7.5,22,5.4,28.2-4.3c4.6-7,6.9-15.2,6.7-23.6c-0.3-7.8-1.8-15.5-2.3-23.3
	c-0.4-5.8-3.3-10-7.3-13.6c-6.8-6.2-13.7-12.3-20.6-18.5c-6.4-5.7-12.3-11.8-15.9-19.8c-9-20-11.6-41.2-10.3-62.8
	c0.9-15,2.8-30,4.5-44.9c0.8-7.4,2.1-14.7,3.7-22c1.1-5.2,2.7-10.3,4.7-15.1c3.7-8.6,9.7-15.2,18.6-18.8L1050,287z"/>
<path class="st0" d="M1192,353.8l-32.6-2.1l-21.4-1.4h-1.7v2.8c-0.5,18.5-1,37-1.5,55.5c-0.1,4.3-0.2,4.2,4,4.8
	c9.2,1.3,18.4,2.7,27.6,4c6.1,0.9,12.1,1.7,18.3,2.5c1.5,0.2,2.1,0.6,1.8,2.3c-1.3,9.1-2.4,18.3-3.7,27.4c-1,7-2,14-2.9,21
	c-0.2,1.7-1,2.1-2.6,1.9c-14.6-2-29.2-3.9-43.8-5.8c-0.8-0.1-1.5-0.2-2.3-0.4c-4.2-0.9-4-0.9-4.7,3.2c-3.8,21.9-3.2,43.9-2.9,66
	c0,2.9,0.1,5.8,0,8.8c0,1.4,0.3,2,1.9,2.1c15.7,1,31.4,2.2,47.1,3.2c3.4,0.2,6.9,0.3,10.4,0.3c1.4,0,2.1,0.4,2.1,2
	c0.1,16.6,1.8,33.1,5.1,49.4c0,0.3,0,0.7,0,1c-0.8,0.1-1.6,0.2-2.4,0.2h-78.1c-2,0-2.7-0.8-2.9-2.6c-1.6-12.8-3.7-25.5-4.7-38.4
	c-2-23.7-1.5-47.5,0-71.1c0.8-12.8,2.6-25.5,4.2-38.2c2.2-17.4,5.1-34.8,6.8-52.3c1.6-18.7,1.6-37.5-0.1-56.2
	c-1-11.6-2.1-23.2-3.4-34.9c-0.4-4.2-1.4-8.3-2.1-12.7c0.9,0,1.7-0.1,2.5-0.1h74.2c2.1,0,3.1,0.7,3.4,2.7c1.3,8.5,2.7,17,4,25.4
	c0.1,0.9,0.3,1.8,0.5,2.7L1192,353.8z"/>
<path class="st0" d="M531.8,358.1c-0.4,5.9-0.9,11.8-1.3,17.6c-1.5,21.5-4.4,42.7-10.1,63.6c-3.2,11.6-6.5,23.2-8.8,35
	s-3.9,24.1-5.1,36.3c-3.1,29.6-3,59.2-3,88.9c0,2.2-0.6,2.9-2.8,2.9c-5.4-0.2-10.8-0.2-16.1,0c-2.3,0.1-3.3-0.6-3.7-2.9
	c-2.7-15.2-5.9-30.3-8-45.6c-3.4-22.9-4.7-46-3.9-69.1c0.8-19.4,1.9-38.8,2.8-58.2c1-19.9,1.4-39.8-0.2-59.6c-0.4-5.1-1-10.2-2-15.3
	c-0.1,1-0.2,2-0.2,3.1c0.6,24.9-1.1,49.7-3.7,74.5c-2.7,25-5.7,50-8.1,75.1c-1.5,17.4-1.7,34.8-0.6,52.2c0.8,14.6,2.3,29.1,4.7,43.5
	c0.1,0.7,0.1,1.3,0.1,2c-0.6,0.1-1.2,0.2-1.8,0.2h-15.9c-1.6,0-2.3-0.5-2.6-2.1c-5.6-29.4-6.6-59-4.7-88.8c1.7-25.7,3.7-51.3,5.8-77
	s4-51.5,4-77.3c0-18.1-1.1-36.3-3.6-54.2c-0.2-1.5-0.4-3-0.7-4.5c-0.5-2,0.1-2.6,2.1-2.5c6.3,0.1,12.6,0,18.9,0
	c3.5,0,7.1,0.1,10.6,0c2-0.1,2.7,0.6,3.1,2.4c2,10.8,4.3,21.5,6.2,32.3c2.8,15.1,5.4,30.3,5.8,45.7c0.5,15.9,0.6,31.8,0.1,47.7
	c-0.9,28.7-3.9,57.3-3.4,86.1c0.1,7,0.6,14,0.9,21c0,0.6,0.3,1.2,0.7,1.6c0.1-0.8,0.3-1.7,0.4-2.5c1.8-17.2,4.6-34.3,8.4-51.1
	c4.5-20.9,9.8-41.7,13.8-62.7c2.3-13.2,3.9-26.4,4.8-39.8c2-25.8,1.1-51.8,1-77.6c0-3,0-3,3-3c8.4,0,16.8,0.1,25.1-0.1
	c2.3,0,3,0.8,3.4,2.9c4.5,23.9,6.6,48.3,6.1,72.6c-0.3,22.5-2.1,44.8-4.2,67.1c-2.4,25.1-5,50.3-6.9,75.5
	c-1.5,20.4-0.4,40.8,1.7,61.2c0.8,8.1,1.7,16.2,2.5,24.3c0,0.9,0,1.8,0,2.7c-0.8,0-1.4,0.2-2.1,0.2c-5.8,0-11.5-0.1-17.3,0
	c-1.8,0-2.5-0.6-2.8-2.3c-1.6-11.4-3.7-22.8-4.7-34.2c-2-25.2-1.7-50.6,0.8-75.7c1.6-16.8,3.7-33.6,5.7-50.4c3-25,5.8-50,6.2-75.3
	V358L531.8,358.1z"/>
<path class="st0" d="M236.5,353.7c-19.2-1.7-38.1-3.6-57.4-3.6c0.4,3.5,0.8,6.7,1,9.9c1,13.3-0.4,26.5-1.7,39.8
	c-0.4,3.8-0.7,7.5-1.1,11.2c-0.1,1.4,0.1,2.1,1.7,2.3c10,1.2,20,2.5,29.9,3.8c6.1,0.8,12.1,1.8,18.2,2.6c1.8,0.2,2.5,1,2.3,2.9
	c-1.1,8.9-2.1,17.8-3.1,26.8c-0.8,7-1.6,14-2.2,21.1c-0.1,1.6-0.4,2.3-2.3,2.1c-15.2-2-30.5-3.9-45.7-5.9l-1.4-0.2
	c-5-0.9-4.9-0.9-5.3,4.1c-0.9,13.1-2.3,26.2-2.9,39.3c-0.5,11.4-0.3,22.9-0.4,34.3c0,1.4,0.3,2,1.9,2.1c15.6,1,31.1,2.1,46.7,3.2
	c3.6,0.2,7.2,0.3,10.8,0.4c1.1,0,1.9,0.1,2,1.5c1.5,13,3.1,25.9,4.6,38.9c0.4,3.4,0.4,6.8,0.7,10.1c0.1,1.7-0.6,2.1-2.1,2.1h-77
	c-1.8,0-2.4-0.7-2.6-2.3c-1.7-12.8-3.7-25.5-5-38.4c-2.3-23.8-2.5-47.7-0.6-71.6c0.9-11.6,2.6-23,3.9-34.6
	c1.8-15.6,3.6-31.3,5.3-46.9c2.2-20.1,2.9-40.3,2.1-60.5c-0.4-9.1-1.7-18-2.7-27c-0.8-7.7-1.6-15.4-2.6-23.1c-0.3-2.3,1.1-2,2.5-2
	h71.3c5.8,0,6,0,6.6,5.7c1.4,14,2.5,28,3.8,41.9c0.2,2.7,0.4,5.4,0.6,8C236.6,352.2,236.5,352.8,236.5,353.7z"/>
<path class="st0" d="M427.7,602.1c-0.7,0.1-1.3,0.2-2,0.2h-21.4c-1.1,0.2-2.1-0.5-2.3-1.6c0,0,0,0,0-0.1c0-0.1,0-0.1,0-0.2
	c-3-12-6.4-23.9-9.1-35.9c-1.4-7-2.4-14.1-3-21.2c-0.2-1.9-0.8-2.6-2.5-2.7c-5.3-0.2-10.6-0.3-15.9-0.8c-6.8-0.6-13.6-1.5-20.3-2.3
	c-0.3,0-0.6,0.1-0.9,0.1c-0.3,3-0.6,6.1-0.8,9.1c-1.3,17.6-2.6,35.2-1.1,52.9c0.2,2-0.4,2.5-2.4,2.5c-6.3-0.1-12.6-0.1-18.9,0
	c-2,0-2.5-0.7-2.5-2.5c-0.7-22.9,0.4-45.8,3.4-68.5c2.9-22.5,7.1-44.7,12-66.9c4.6-20.7,9.3-41.3,14.4-61.9
	c6.9-27.9,9.8-56.2,10-84.9c0-6.5,0.1-12.9,0-19.4c0-1.9,0.6-2.5,2.5-2.5c7.6,0.1,15.1,0.1,22.6,0c1.8,0,2.4,0.7,2.7,2.3
	c4.3,22.9,8.8,45.8,13,68.8c2.6,13.3,3.8,26.8,3.7,40.3c-0.1,6.6,0.9,13.2,0.7,19.8c-0.2,7.6-1.4,15.1-1.7,22.7
	c-0.5,9.9-0.8,19.8-0.7,29.7c0.3,22.7,2.8,45.4,7.4,67.7c3.7,17.4,8.1,34.7,12.3,52C427.1,600,427.4,600.9,427.7,602.1z
	 M384.2,370.4c-5.7,38.9-17.9,76.2-26.5,114l26.6,3.7C385.9,448.8,385.9,409.6,384.2,370.4L384.2,370.4z"/>
<path class="st0" d="M247.2,347.7c-0.1-17.4-1.9-34.8-5.4-51.9h85.8c2.1,0,2.9,0.5,3.1,2.7c1.4,13.6,3.1,27.2,4.5,40.8
	c0.4,4,0.4,8.1,0.7,12.2c0.1,1.9-0.6,2.5-2.4,2.3c-4.8-0.6-9.6-1.3-14.4-1.7c-3.9-0.3-7.8-0.3-11.7-0.5c-1.7-0.1-2.2,0.6-2.3,2.3
	c-0.2,12.5,0,24.9-0.9,37.3c-1.1,15.1-2.9,30.3-4.9,45.3c-3.8,28.5-8.3,57-9.2,85.9c-0.3,14,0.4,28,2.4,41.8
	c1.5,11.8,2.4,23.7,3.6,35.5c0.2,2-0.4,2.7-2.5,2.6c-5.7-0.2-11.3-0.1-17,0c-1.8,0-2.5-0.6-2.6-2.3c-1.1-10.1-2.5-20.1-3.3-30.2
	c-2.9-33.8-1.8-67.6,1.6-101.2c1.6-15.9,3.3-31.7,6-47.3c3.2-17.1,4.6-34.4,4.3-51.8c-0.1-5.8-0.6-11.7-0.9-17.5
	c0-1.1-0.1-1.9-1.6-2c-5.8-0.5-11.6-1.2-17.4-1.6C257.7,348,252.7,348,247.2,347.7z"/>
<path class="st0" d="M687.3,296.3c0.3-0.1,0.5-0.3,0.7-0.3c11.5,1.5,22.8-0.5,34.3-1c9.1-0.4,18.1-0.1,26.6,4
	c4.7,2.1,8.7,5.6,11.5,9.9c9.1,14.5,15.1,30.7,17.6,47.6c4.2,27.3,1.1,53.9-7.3,80c-1,3.2-3.2,6.1-4.9,9.1c-2.5,4.2-5,8.4-7.5,12.6
	c-1.5,2.2-1.5,5.2,0,7.4c4.8,7,5.3,14.9,5.5,22.9c0.3,18,0.5,35.9,0.7,53.9c0.2,13.6,0.8,27.2,3.5,40.6c0.6,2.9,2.3,5.7,3.5,8.4
	s2.8,5.1,3.8,7.8c0.9,2.5,0.4,3-2.3,3h-22.3c-1.4,0.3-2.7-0.6-3-2c0,0,0,0,0,0V600c-3.3-13.7-5.4-27.6-6.1-41.7
	c-0.8-16.6-1.2-33.2-1.9-49.7c-0.1-3.7-0.3-7.4-0.5-11c-0.5-8.3-5.9-14.5-14.8-16.2c-5.8-1.1-11.7-1.1-17.6-1.5
	c-0.6,0-1.6,1-1.7,1.8c-0.7,4.4-1.4,8.8-1.9,13.2c-2.4,22.1-1.6,44.2,0.3,66.3c1.1,12.8,2.2,25.6,3.4,38.3c0.2,2.1-0.2,3-2.6,2.9
	c-5.1-0.2-10.2-0.1-15.2,0c-1.6,0-2.2-0.5-2.5-2.2c-5.1-28.7-7.4-57.8-6.8-86.9c0.5-16.9,2-33.8,4.3-50.6c2.2-17,4.1-34.2,5.9-51.3
	c2-19.3,3.3-38.8,2.5-58.2c-0.5-11.8-2-23.5-3.2-35.3c-0.7-6.9-1.5-13.8-2.2-20.6C687.1,297,687.2,296.6,687.3,296.3z M714.5,348.8
	c3.3,26.9,0,53.5-3.6,79.5c4.2,0.4,7.9,0.6,11.7,1.3c3.5,0.6,7,1.7,10.5,2.6c8.8,2.2,14.2-0.4,18-8.5c4.5-9.4,6.7-19.7,6.6-30.1
	c-0.1-8.1-1.1-16.2-2-24.3c-0.3-2.9-1.1-5.7-2.3-8.3c-1.3-2.5-2.8-4.9-4.5-7.2c-0.7-1-1.7-1.7-2.9-2c-5-1.3-10.2-2.2-15.3-2.9
	C725.4,348.4,720.1,348.8,714.5,348.8L714.5,348.8z"/>
<path class="st0" d="M795.3,295.9h74.9c2.2,0,2.8,0.6,3.1,2.8c1.4,10.5,3.2,21,4.3,31.5c0.8,7,0.6,14.1,0.9,21.1
	c0.1,1.9-0.6,2.5-2.7,2.4c-16.2-1.2-32.5-2.3-48.7-3.4c-0.8-0.1-1.7,0-2.9,0v2.8c-0.5,20.9-1,41.8-1.7,62.6
	c-0.1,2.4,0.8,3.1,2.8,3.7c9.3,2.7,18.9,3,28.5,4c4.4,0.5,8.8,1.1,13.2,1.7c1.6,0.2,2.3,0.9,2.1,2.8c-1.9,14.2-3.8,28.5-5.7,42.7
	c-0.2,1.3-0.5,2.6-0.7,3.9c-0.7,4.2-0.4,4-4.7,3.5c-9.4-1.1-18.8-2.7-28.3-4c-4.2-0.6-8.4-0.8-12.6-1.2c-1.5-0.2-2.2,0.4-2.4,2
	c-3.1,20.7-4.2,41.6-3.4,62.5c0.7,21.1,2.8,42.2,5.5,63.1c0.2,1.5-0.1,2.1-1.7,2.1h-18.2c-1.5,0-2-0.7-2.2-2
	c-1.5-11.4-3.5-22.8-4.5-34.2c-2.4-27.2-2-54.5,0-81.7c1.1-14.6,2.7-29.2,5-43.7c5.2-32.1,7.6-64.4,4.9-96.9
	c-1.2-14.8-3-29.6-4.5-44.4L795.3,295.9z"/>
<path class="st0" d="M933.5,152.4c0.6,0.4,1.2,0.7,1.8,0.9c8,1.9,14.3,6.4,19.6,12.6c5.7,6.6,9.5,14.2,12.7,22.2
	c4.4,11.1,7.3,22.7,10.1,34.3c3.5,14.5,4.6,29.3,5,44.1c0,1.3-0.4,1.6-1.5,1.6H961c-1.4,0-1.6-0.6-1.7-1.8c-0.5-4.7-1-9.4-1.7-14.1
	c-1.3-8.8-3.5-17.4-6.7-25.7c-1.1-3.1-2.5-6.1-4-9.1c-0.9-1.6-2.2-2.9-3.7-3.9c-2.4-1.7-5.1-3.1-7.7-4.6c-2.1-1.3-4.8-1.1-6.6,0.6
	c-6.3,5.1-11.2,11.6-14.3,19c-2.8,6.6-4.8,13.4-6.1,20.4c-1.1,5.8-2.2,11.7-3.2,17.6c-0.2,1.2-0.7,1.5-1.8,1.5h-21.9
	c-1.7,0-1.7-0.1-1.4-1.7c2-10.9,3.9-21.8,5.9-32.7c0.6-3.2,1.6-6.4,2.2-9.6c0.9-4.7,1.5-9.5,2.3-14.3c1.5-9.3,3.8-18.4,6.6-27.4
	c1.7-6,4.4-11.8,8-16.9c1.9-2.6,4.1-5,6.4-7.2c2.2-2.1,4.8-3.7,7.6-4.6c0.8-0.4,1.5-0.8,2.3-1.3L933.5,152.4z"/>
<path class="st0" d="M615.1,152.4c0.6,0.5,1.2,0.9,1.8,1.2c12.2,4.9,21,13.6,27.4,24.8c5.5,9.6,8.8,20,11.2,30.7
	c2.2,10.5,3.8,21.1,4.8,31.7c0.7,6.9,1.3,13.8,2,20.8c0.2,1.7,0.1,3.4,0.3,5c0.1,1-0.2,1.4-1.2,1.4h-19.3c-1.2,0-1.3-0.6-1.4-1.6
	c-0.5-5.1-0.9-10.2-1.4-15.3c-1-10.3-4.1-20.3-9.1-29.4c-1.1-2.1-2.5-4-3.8-6c-2.3-3.5-5.8-5.6-9.6-7.2c-2.5-1.1-5.4-0.8-7.6,0.9
	c-4.4,3.1-7.9,7.3-10.3,12.2c-2.8,5.6-4.8,11.4-6.2,17.5c-2.1,9.1-4,18.1-5.9,27.1c-0.3,1.5-0.9,1.8-2.3,1.8c-7-0.1-14,0-21,0
	c-1.9,0-2-0.1-1.6-1.9c1.9-10.7,3.8-21.4,5.6-32.1c1-5.8,1.7-11.7,2.8-17.4c1.3-6.7,2.9-13.3,4.5-19.9c2.1-8.8,4.8-17.4,8.2-25.8
	c0.8-1.9,1.9-3.6,3.2-5.2c2-2.6,4.2-5,6.4-7.5c1.6-1.7,3.6-2.9,5.8-3.5c1.5-0.5,3.1-0.9,4.6-1.4c0.5-0.3,1-0.6,1.5-1L615.1,152.4z"
	/>
<path class="st0" d="M1039.9,152.4c0.4,0.3,0.8,0.6,1.3,0.8c6.4,1.7,11.2,5.7,15.9,10.2c9.4,9.3,15,20.8,18.9,33.2
	c4.5,14.3,6.3,29.1,6.9,44.1c0.2,5.9,0.3,11.8,0.4,17.7c0,2.1,0,2.2-2.2,2.3c-3.8,0.1-7.7,0.3-11.5,0.2c-2-0.1-3.9-0.5-5.8-1.1
	c-2.3-0.7-2.3-1-2.1-3.3c0.7-6.8,0.5-13.6-0.4-20.4c-1-6.5-2.8-12.7-6.8-18.1c-3.3-4.5-8-7.3-13.1-9.4c-3.2-1.3-6.4-0.5-9.2,1.4
	c-4.3,2.9-6.6,7.2-8.5,11.7c-2.7,6.5-3.8,13.6-3.3,20.7c0.3,7.6,1.1,15.1,1.7,22.7c0,0.5,0.2,1,0.4,1.5c0.8,1.7,0.9,1.7-0.9,1.7
	h-22.8c-2,0-2,0-2-2.1c0.1-10.9,0.7-21.7,2-32.5c1.6-13.5,3.2-26.9,5-40.3c0.5-2.6,1.2-5.2,2.1-7.7c1-3.4,1.9-6.8,2.9-10.2
	c1.8-5.2,4.5-10,8.1-14.2c2.7-3.1,6-5.6,9.7-7.2c0.7-0.4,1.3-0.9,1.9-1.4H1039.9z"/>
<path class="st0" d="M1181.8,221.7c-2.3-0.3-4.5-0.7-6.8-0.8c-11-0.6-22.1-1.2-33.1-1.8c-4.4-0.2-8.7-0.6-13.1-1
	c-2.3-0.2-2.3-0.2-2.3,2.1c-0.2,12-0.3,24-0.5,36c0,3.4-0.3,6.9-0.3,10.3c0,1.1-0.4,1.6-1.6,1.6H1105c-1.4,0-1.6-0.6-1.5-1.8
	c0.3-7.2,0.6-14.4,0.7-21.5c0.2-13.4-0.3-26.8-1.5-40.1c-0.9-9.6-1.7-19.2-2.8-28.8c-0.4-4-1.3-8-2-12c-0.3-1.8-0.3-2,1.6-2h74.4
	c3,0,2.9,0,3.7,2.9c2,8.1,3.3,16.4,3.9,24.7c0.1,1,0.3,1.9,0.5,2.9L1181.8,221.7z"/>
<path class="st0" d="M684.4,238.2c-0.2-7.6-0.2-17.2-0.7-26.8c-0.3-6.3-1.3-12.6-1.9-19c-0.9-8.8-1.8-17.7-2.7-26.5
	c0-0.3,0-0.6-0.1-0.9c-0.3-3.2-0.3-3.2,2.8-2.8c6.8,0.8,13.6,0.1,20.5-0.4c7.8-0.6,15.6-1.4,23.5-0.7c7.2,0.5,14,3,19.9,7.3
	c2.1,1.5,3.9,3.5,5.3,5.7c7.6,12,13.1,25.3,16.3,39.2c4,17.3,4.7,34.8,3.2,52.5c0,0.3-0.1,0.6-0.1,0.9c0.1,1.3-0.6,1.5-1.7,1.5
	h-18.2c-1,0-1.5-0.1-1.4-1.4c0.7-9.9-0.5-19.7-1.7-29.5c-0.8-6.5-4.2-11.3-7.5-16.4c-0.6-0.7-1.4-1.1-2.3-1.3
	c-8-2.4-16.4-3.6-24.8-3.4h-5.1c-1.2-0.1-1.5,0.4-1.5,1.6c0.4,5.3,0.9,10.7,1.1,16c0.3,10.9,0,21.9-1,32.8c-0.1,1.3-0.5,1.7-1.8,1.7
	c-6.6,0-13.2,0-19.8,0c-1.7,0-1.7,0-1.6-1.9C683.4,257.6,683.9,248.9,684.4,238.2z"/>
<path class="st0" d="M279.1,161.9h42.1c1.3-0.1,1.9,0.4,2.1,1.8c0.7,6.7,1.5,13.4,2.3,20.1c0.7,6.4,1.5,12.8,2.1,19.2
	c0.5,5.5,0.6,11,0.9,16.5c0.1,2-0.2,2.3-2.3,2.1c-5-0.5-10-1.4-15.1-1.8c-3.7-0.3-7.5-0.3-11.3-0.3c-1.9,0-1.9,0.2-2,2.3
	c0,7.6,0.2,15.1-0.1,22.7c-0.2,7.5-0.9,15-1.3,22.4c-0.1,1-0.5,1.3-1.4,1.3h-19.3c-1.7,0-1.3-1-1.3-2c0.3-9.2,0.7-18.4,0.8-27.5
	c0-6.2-0.5-12.4-0.8-18.6c-0.1-2.3-0.2-2.1-2.4-2.4c-6.1-0.6-12.2-1.4-18.3-1.8c-3.8-0.3-7.6-0.2-11.5-0.1c-2,0-2,0.1-2.1-1.9
	c-0.5-8.7-0.7-17.4-1.5-26.1c-0.8-7.8-2.3-15.6-3.4-23.4c-0.1-0.4-0.3-0.9-0.2-1.3c0.1-0.5,0.4-0.9,0.9-1.1c0.6-0.1,1.2-0.1,1.8-0.1
	L279.1,161.9z"/>
<path class="st0" d="M184.7,161.9h36.9c2.8,0,2.9,0,3.2,2.7c0.9,7,1.9,13.9,2.4,20.9c0.9,11.2,1.6,22.4,2.4,33.6
	c0,0.2,0.1,0.5,0.1,0.7c0,1.5-0.1,1.7-1.7,1.5c-4.4-0.4-8.7-0.9-13.1-1.3c-12.8-1.1-25.7-2.1-38.6-2.3h-1.4c-2.5,0-2.6,0-2.3,2.5
	c1.4,11.5,1.5,23.1,0.3,34.6c-0.3,3.8-0.7,7.6-1,11.4c-0.1,1.3-0.5,1.8-1.9,1.8c-6.4-0.1-12.7,0-19.1,0c-1.9,0-1.9,0-1.7-2
	c1.1-15.3,1.7-30.5,1.3-45.9c-0.1-5.1-0.6-10.2-1.1-15.3c-1.2-12.6-2.6-25.1-3.9-37.7c-0.1-1.3-0.3-2.6-0.5-3.9
	c-0.1-1.1,0.4-1.6,1.4-1.6L184.7,161.9L184.7,161.9z"/>
<path class="st0" d="M825.3,161.9h36.2c2.5,0,2.5,0.1,2.8,2.5c1.1,8.7,2.4,17.4,3.6,26.1c1.3,9.5,2.4,19,1.7,28.6
	c0,0.3-0.1,0.6-0.1,0.9c0,1.1-0.5,1.6-1.8,1.5c-5.7-0.6-11.3-1.3-17-1.7c-11.1-0.7-22.2-1.3-33.3-1.9c-1.9-0.1-2,0-2,2.1
	c0,9.3,0,18.5-0.1,27.8c0,6.1-0.3,12.2-0.4,18.4c0,1.9-0.1,2-2.1,2h-18.3c-2.9,0-2.3-0.1-2.3-2.3c0.1-12.1,0.4-24.2,0.2-36.3
	c-0.2-15-1.2-30-2.9-44.8c-0.8-6.8-1.7-13.6-2.6-20.5c-0.3-2.3-0.3-2.3,2.1-2.3L825.3,161.9z"/>
<path class="st0" d="M376.5,238.7c-0.5,3-0.9,6-1.5,9c-1.1,6.2-2.3,12.5-3.3,18.7c-0.2,1.4-0.9,1.7-2.2,1.7c-6.7-0.1-13.4,0-20,0
	c-1.9,0-1.9,0-1.5-2c1.3-6.4,2.9-12.8,3.9-19.3c1.5-9.8,2.7-19.7,3.6-29.6c1.5-17.4,1.5-34.8,1.5-52.3v-1.6c-0.1-0.7,0.4-1.3,1-1.4
	c0.1,0,0.2,0,0.4,0h23.2c2.5,0,2.6,0.1,3,2.4c2.7,14.1,5.3,28.2,7.9,42.4c1.7,9.3,3.6,18.6,5,28c1.4,9.4,2.4,18.8,3.5,28.2
	c0.1,1.3,0,2.6,0.1,3.9c0.1,1-0.3,1.4-1.3,1.3h-20.3c-1.8,0-1.8,0-1.9-1.9c-0.2-8.2-0.4-16.5-0.6-24.8c0-0.9-0.1-1.8-0.2-2.6
	L376.5,238.7z"/>
<path class="st0" d="M461.8,218.7c0,5.7,0.1,11.3,0,17c-0.3,10-0.6,20-1,30c-0.1,2.4,0.2,2.3-2.5,2.3H440c-2.9,0-2.4-0.2-2.3-2.3
	c0.4-13.8,1-27.7,1.1-41.5c0.1-16.3-0.7-32.6-2.6-48.7c-0.5-3.8-1.1-7.6-1.6-11.3c-0.3-2-0.1-2.3,1.7-2.3h30.4c1.8,0,1.9,0,2.3,2.1
	c1.2,5.9,2.4,11.9,3.5,17.8c1.5,8,3,16.1,4.3,24.1c1,5.7,1.8,11.5,2.5,17.2c1.7,14,2.6,28,2.6,42.1c0,3.1,0.5,2.8-2.8,2.8h-12.7
	c-1.3,0-1.6-0.5-1.7-1.7c-0.2-10.2-0.5-20.5-0.9-30.7c-0.2-5.2-0.9-10.4-1.4-15.5c-0.1-0.4-0.2-0.9-0.3-1.3L461.8,218.7z"/>
<path class="st0" d="M44.7,217.3v5.3c0.5,14.1,1,28.3,0.3,42.5c-0.2,3.7,0.1,3-3.2,3.1h-17c-2.2,0-2.2,0-2.1-2.3
	c0.2-12.3,0.7-24.6,0.6-37c-0.1-18.5-1.5-37-4.1-55.3c-0.4-3.1-1-6.2-1.5-9.3c-0.4-2.1-0.2-2.3,1.8-2.3h30.4
	c1.1-0.2,2.1,0.5,2.3,1.6c0,0,0,0,0,0c0,0.1,0,0.2,0,0.2c1.4,6.6,3,13.1,4.3,19.7c1.6,7.9,3.2,15.9,4.5,23.9
	c2.6,15.2,3.9,30.7,4,46.1v13.1c0,1.2-0.3,1.6-1.5,1.6c-4.7-0.1-9.3-0.1-14,0c-1.4,0-1.6-0.5-1.6-1.8c-0.2-9.3-0.2-18.7-0.7-28
	c-0.3-6-1-12-1.6-18.1c-0.2-1-0.4-2.1-0.7-3.1L44.7,217.3z"/>
<path class="st0" d="M523.8,226.7c-0.4,6.6-0.8,13.1-1.3,19.7s-1.2,13.2-1.9,19.9c-0.2,1.8-0.2,1.8-2.1,1.8h-12.2
	c-1.1,0-1.4-0.4-1.2-1.5c1.6-12.9,2.5-25.9,2.7-38.9c0.2-20.4,0.1-40.8,0.2-61.3v-2.1c0-2.4,0-2.5,2.4-2.5h26.3c2,0,2.3,0.1,2.6,2.1
	c1.3,8.4,2.9,16.9,3.9,25.4c2.1,18.8,2.9,37.7,2.3,56.6c-0.2,6.7-0.5,13.5-0.8,20.2c-0.1,2-0.1,2-2.1,2h-18c-2,0-1.9,0-1.7-2.1
	c1-12.5,1.7-25,1.5-37.6c0-0.6,0-1.2-0.1-1.8L523.8,226.7z"/>
<path class="st0" d="M106.8,237.1c-0.3,4.8-0.5,9.6-1,14.4c-0.5,5.2-1.3,10.3-1.9,15.5c-0.1,0.9-0.5,1.1-1.3,1.1H88.3
	c-1.1,0-1.1-0.5-1-1.5c0.7-4.9,1.4-9.7,1.9-14.6c1-9.7,2.1-19.5,2.9-29.2c1-13.5,1.2-27.1,0.6-40.6c-0.2-5.6-0.8-11.1-1.1-16.7
	c0-0.5-0.1-0.9-0.1-1.4c-0.2-2.3-0.1-2.3,2.3-2.3h26.2c2.1,0,2.2,0,2.5,2.1c1.5,10.3,3.3,20.5,4.4,30.9c2.2,20,2.1,40.2,1.5,60.3
	c-0.1,3.8-0.4,7.6-0.5,11.5c0,1.3-0.6,1.5-1.7,1.5h-17.3c-1.4,0-1.5-0.6-1.5-1.8c0.2-8.8,0.2-17.6,0.3-26.4c0-0.9-0.1-1.9-0.2-2.9
	L106.8,237.1z"/>
<path class="st0" d="M321.6,18.3c-3,15.6-6.1,31.2-9.1,46.8c-1.5,7.9-2.3,16-4.1,23.9c-2.4,10.6-4.9,21.2-10.9,30.5
	c-4.3,6.6-9.4,12.5-17.3,14.6c-5.1,1.3-10.6,1.1-15.6-0.5c-11.8-3.4-19.2-11.7-25-21.7c-6.6-11.5-10.4-24.1-13.8-36.8
	c-4.9-17.6-7.4-35.8-7.6-54.2c0-0.9,0.1-1.8,0.1-2.7h23c0.1,1,0.2,2,0.3,3c1.2,15.1,4.6,30,10.3,44c1.2,3,2.6,5.9,5.5,7.8
	c2.6,1.7,5.4,3.3,8.1,4.8c2.1,1.3,4.8,1.1,6.6-0.6c7-5.6,12.3-13,15.4-21.3c4.8-12.1,6.5-24.9,8.7-37.7L321.6,18.3z"/>
<path class="st0" d="M519.7,18.3c-0.1,2.5-0.1,5-0.2,7.5c-0.3,14.9-1,29.8-0.7,44.7c0.2,10.4,1.8,20.7,2.9,31
	c0.8,7.3,1.5,14.6,2.3,21.9c0.1,1.1,0.1,1.9-1.3,1.7c-11.3-1.5-22.7,0.6-34,1c-6.8,0.3-13.7,0.3-20.3-1.7
	c-8.1-2.4-14.5-6.8-18.8-14.3C439.9,93.5,433.9,75,432,55.9c-1.4-12.5-1.4-25.2,0.1-37.7h21.2c0.3,7.9,0.4,15.9,0.8,23.8
	c0.5,8.4,2.3,16.5,8,23.2c0.7,0.9,1.6,1.6,2.6,2c10,3.3,20.3,3.7,30.7,3.5c0.4-0.1,0.8-0.2,1.1-0.3c-2.1-17.4-1.6-34.8,0-52.1
	L519.7,18.3z"/>
<path class="st0" d="M642.3,18.3c-2.4,13.9-5.1,27.6-7.2,41.6c-2.8,19.3-7.7,38.2-14.5,56.5c-0.8,1.9-1.9,3.6-3.3,5.2
	c-2,2.6-4.2,5-6.4,7.5c-0.4,0.5-0.8,0.9-1.3,1.2c-4.1,2.4-8.7,4-13.5,4.6c-8.7,1.1-15.4-3.3-21.8-8.1c-10.5-7.8-16.8-18.7-21.3-30.6
	c-5-13.2-7.5-27.1-9.1-41.1c-1.3-11.5-2.3-23-3.3-34.5c-0.1-0.8,0-1.5,0-2.3h22.1c0.7,7.5,1.1,15.1,2.3,22.6
	c1.6,10.5,5.6,20.6,11.6,29.4c2.4,3.5,5.8,6.2,9.7,7.8c2.8,1.3,6,1,8.5-0.9c6-4.3,10.4-10.4,12.5-17.4c3-9.6,5.3-19.5,7.7-29.2
	c1-4,1.5-8.1,2.2-12.1L642.3,18.3z"/>
<path class="st0" d="M931.2,18.3c-1.4,16.1-1.4,32.3-0.2,48.4c0.1,1.9,0.8,2.3,2.6,2.5c6.2,0.5,12.3,1.3,18.5,1.8
	c3.7,0.3,7.5,0.3,11.2,0.1c1.6-0.1,2.3,0.1,2.3,1.8c0,12.9,1.1,25.7,3,38.4c0.6,3.9,1.3,7.8,2.1,11.7c0.3,1.7,0,2.3-1.9,2.3h-84.8
	c-1.4,0-2-0.4-2.2-1.9c-1.3-12.7-2.9-25.4-4.1-38.1c-0.6-6-0.7-12.1-1.1-18.1c-0.1-1.7,0.6-2.3,2.2-2c5.1,0.6,10.2,1.4,15.3,1.8
	c3.7,0.3,7.5,0.3,11.2,0.4c1.6,0,2.1-0.6,2.1-2.2c0.2-13,0.5-26,0.9-39c0.1-2.7,0.5-5.3,0.8-7.9L931.2,18.3z"/>
<path class="st0" d="M204.1,18.3c-0.2,5.6-0.2,11.2-0.8,16.7c-1.8,18-4,36-5.8,54.1c-0.9,8.4-3.4,16.4-6.1,24.2
	c-3.4,9.6-9.4,17.6-19.4,21.1c-3.5,1.2-8,0.8-11.8,0c-10.1-2.2-16.6-9.5-22.7-17.1c-7-8.7-10.9-18.9-14-29.5
	c-5.5-18.7-6.4-37.9-6.6-57.2c0-4.5,0-4.7,4.4-4.7c4.8,0,9.6,0.2,14.4,0.8c3.2,0.4,3.2,1,2.9,4.2c-0.8,9.9-0.5,19.7,2.7,29.3
	c2.6,8.3,8.8,14.9,16.9,18c3.6,1.6,7.8,0.9,10.8-1.7c4.4-3.5,6.8-8.2,8.6-13.3c2.9-8.1,2.9-16.5,2.4-24.9
	c-0.3-5.6-0.9-11.1-1.6-16.7c-0.3-1.2-0.8-2.3-1.5-3.3L204.1,18.3z"/>
<path class="st0" d="M96.7,18.3c-1.3,19.5-1.2,39,0.3,58.5c1,11.9,2.1,23.8,3.3,35.6c0.4,3.6,1,7.1,1.8,10.6
	c0.4,1.9,0.1,2.4-1.9,2.4c-8.9-0.1-17.8,0-26.7,0H25.4c-2.1,0-2.9-0.7-3.4-2.7c-3-12.8-4.6-25.9-4.5-39.1V65.5l55.6,3.3
	c0.3-16.9,0.7-33.7,1-50.5L96.7,18.3z"/>
<path class="st0" d="M1057.4,18.3c-1.6,18.5-2.4,37-1.2,55.5c1.1,16.3,3.2,32.6,5,48.8c0.2,2.2-0.2,2.8-2.4,2.8
	c-24.9-0.1-49.8-0.1-74.7,0c-2.1,0-2.9-0.7-3.1-2.6c-1-10.6-2.3-21.1-3.2-31.7c-0.7-7.8-1-15.6-1.6-23.4c-0.2-2,0.4-2.4,2.4-2.3
	c17.2,1.2,34.3,2.4,51.5,3.5c1.2,0.1,2.4,0,3.7,0c-0.4-4.6-1.1-8.9-1.1-13.1c0.2-10.8,0.8-21.5,1.3-32.3c0.1-1.8,0.3-3.5,0.4-5.2
	L1057.4,18.3z"/>
<path class="st0" d="M410,18.3c-0.1,14.5-0.4,28.9-0.2,43.4c0.5,20.4,2.3,40.8,5.4,61c0.3,2.2-0.1,2.8-2.4,2.8
	c-24.3-0.1-48.5-0.1-72.8,0c-1.7,0-2.6-0.3-2.9-2.3c-1.4-11-3.2-22-4.3-33c-0.8-7.3-0.7-14.8-1-22.2c-0.1-2,0.5-2.7,2.8-2.5
	c16.4,1.3,32.8,2.4,49.1,3.6c2,0.1,2.6-0.5,2.6-2.5c0.1-16.1,0.3-32.1,0.5-48.2L410,18.3z"/>
<path class="st0" d="M857.4,18.3c-3.5,14-5.9,28.3-7.3,42.7c-2,20.4-2.3,40.8-2.2,61.2c0,3.2,0,3.2-3.3,3.2c-7.2,0-14.4-0.1-21.6,0
	c-1.8,0-2.6-0.6-2.9-2.4c-4.3-23.7-8.9-47.3-13-71c-1.9-11.1-3.8-22.3-3.6-33.7H827l0.8,29.5h0.4c1.8-9.8,3.5-19.7,5.3-29.5
	L857.4,18.3z"/>
<path class="st0" d="M766.7,18.3c-0.1,2.9-0.1,5.8-0.3,8.7c-1.2,25.2-1.5,50.3,0.9,75.4c0.7,6.8,1.6,13.7,2.5,20.5
	c0.3,2-0.2,2.5-2.3,2.5c-9.9-0.1-19.8-0.1-29.7,0c-1.3,0.2-2.6-0.7-2.8-2c0,0,0,0,0,0c0-0.1,0-0.3,0-0.4c-2.3-12.8-5.1-25.5-7-38.3
	c-2.2-14.6-3.7-29.3-5.2-43.9c-0.7-6.6-0.5-13.1-0.7-19.7c0-0.9-0.1-1.8-0.2-2.7h17.5c-0.3,16.3,0.5,32.7,2.6,48.9l1.6-48.9
	L766.7,18.3z"/>
<path class="st0" d="M1189.7,125.2c-10.9,0-21.8,0-32.7,0.1c-1.4,0-1.8-0.6-2.1-1.9c-2.4-11.7-5.1-23.4-7.4-35.2
	c-3.4-17-5.2-34.2-5.6-51.5c-0.1-6.2-0.1-12.4-0.2-18.6h17.5c-1,12.2,1.1,46.7,3.1,50.9V65c-0.2-9.2-0.6-18.3-0.6-27.5
	c0-6.4,0.5-12.8,0.7-19.3h22.1c-0.1,3-0.1,6-0.2,8.9c-1.2,27.8-0.1,55.6,3.3,83.1c0.5,3.9,1.3,7.8,2,11.7L1189.7,125.2z"/>
<path class="st0" d="M698.9,18.3c-0.7,7.6-1.4,15.2-1.9,22.8c-1.6,24.1-1.3,48.2-1,72.2c0,3.1,0,6.3,0.1,9.4c0.1,2-0.5,2.7-2.6,2.7
	c-8.8-0.1-17.5-0.1-26.2,0c-1.8,0-2.5-0.6-2.7-2.3c-1.4-9.3-3-18.6-4.1-27.9c-2.9-25.6-2.5-51.3-1.1-77h22.1
	c-1.3,13.6-1.9,27.2-1.7,40.8c0.4-1.2,0.6-2.5,0.7-3.8c0.7-9,1.2-18,1.9-27c0.2-3.3,0.6-6.7,0.9-10L698.9,18.3z"/>
<path class="st0" d="M1119.6,18.3c-0.6,5.4-1.2,10.8-1.9,16.1c-3,22.1-4.2,44.4-3.6,66.6c0.2,7.3,0.8,14.5,1.4,21.8
	c0.2,2.1-0.4,2.6-2.5,2.6c-8.7-0.1-17.4-0.1-26.1,0c-1.7,0-2.5-0.4-2.7-2.2c-1.7-13.2-3.9-26.3-5-39.6c-1.9-21.8-1.4-43.6-0.2-65.4
	h20.7c-0.2,0.7-0.3,1.3-0.3,2c-0.1,9.2-0.2,18.3-0.3,27.4c0.1,0.7,0.2,1.3,0.3,2l3.5-31.5L1119.6,18.3z"/>
<g>
	<text transform="matrix(0.89 0 0 1 443.4463 703.7539)" class="st0 st1 st2 st3">22/maio a 26/maio/2020</text>
</g>
</svg>
